<svg width="165" height="140" viewBox="0 0 165 140" fill="none" xmlns="http://www.w3.org/2000/svg">
<path d="M51.7897 139.832C81.8278 139.832 104.874 124.554 104.874 97.3647C104.874 73.0236 85.7121 62.9246 71.2109 58.0045L54.3792 51.7898C45.316 48.9413 42.7266 44.7981 42.7266 40.396C42.7266 35.7349 46.6107 31.0739 54.3792 31.0739C59.8171 31.0739 66.5499 33.4044 69.9163 43.7623L101.249 35.9939C96.5879 14.2422 78.2025 0 52.8255 0C26.4127 0 3.88422 14.7601 3.88422 39.8781C3.88422 56.7098 13.4653 71.2109 35.7349 79.2383L53.8613 85.971C62.6656 88.8195 65.2551 92.9626 65.2551 97.3647C65.2551 104.874 58.5224 108.5 51.2719 108.5C38.5834 108.5 33.9223 99.4363 31.8507 92.9626L0 101.508C4.14318 127.144 24.6001 139.832 51.7897 139.832Z" fill="white"/>
<path d="M141.473 139.832C153.644 139.832 164.261 130.769 164.261 117.045C164.261 103.321 153.644 94.2574 141.473 94.2574C129.302 94.2574 118.686 103.321 118.686 117.045C118.686 130.769 129.302 139.832 141.473 139.832Z" fill="white"/>
</svg>
